<?xml version="1.0" encoding="utf-8"?>
<!-- Generator: Adobe Illustrator 27.4.0, SVG Export Plug-In . SVG Version: 6.00 Build 0)  -->
<svg version="1.1" id="Layer_1" xmlns="http://www.w3.org/2000/svg" xmlns:xlink="http://www.w3.org/1999/xlink" x="0px" y="0px"
	 viewBox="0 0 397.94 381.84" style="enable-background:new 0 0 397.94 381.84;" xml:space="preserve">
<style type="text/css">
	.st0{fill:none;stroke:#A48C31;stroke-width:0.5;stroke-miterlimit:10;}
	.st1{fill:#F1A01F;}
	.st2{fill:#A75425;}
	.st3{fill:none;}
	.st4{fill:#A48C31;}
</style>
<g>
	<g>
		<path class="st0" d="M135.49,146.65c-12.26,22.39-10.32,47.49-10.32,47.49h10.6c0,0-7.77-78.15,75.63-73.23l4.95-7.74
			c-4.07-0.44-7.95-0.7-11.66-0.8"/>
		<path class="st0" d="M182.56,145.01l5.82,13.29l23.43,0.08c0,0,2.43,22.39-16.14,28.73l-0.05-11.59l7.93,4.67"/>
		<line class="st0" x1="211.39" y1="121.54" x2="182.42" y2="145.62"/>
		
			<ellipse transform="matrix(0.2721 -0.9623 0.9623 0.2721 13.2673 303.3673)" class="st0" cx="207.15" cy="142.91" rx="5.66" ry="5.75"/>
		<circle class="st1" cx="246.54" cy="121" r="13.27"/>
		<line class="st0" x1="211.4" y1="120.91" x2="211.5" y2="139.26"/>
		<line class="st0" x1="197.86" y1="132.59" x2="202.41" y2="139.35"/>
		<g>
			<path class="st2" d="M246.97,194.14h12.84v73.36h-4.34v-26.26c-16.06,18.23-34.59,27.35-55.57,27.35
				c-10.71,0-20.51-2.28-29.41-6.84c-8.9-4.56-16.57-10.53-23.01-17.91c-6.44-7.38-11.43-15.74-14.98-25.07
				c-3.55-9.33-4.22-14.3-4.22-23.85h4.34c0,9.7,0.67,14.52,4.22,23.42c3.54,8.9,8.43,16.75,14.65,23.55
				c6.22,6.8,13.46,12.23,21.71,16.28c8.25,4.05,17.15,6.08,26.7,6.08c10.13,0,19.75-2.31,28.87-6.95
				c9.12-4.63,18.02-12.01,26.7-22.14v-36.68h-9.29"/>
		</g>
		<path class="st0" d="M188.38,158.3c0,0-9.99,38.96-34.29,29.09l6.94-11.58l3.83,9.98"/>
		<polygon class="st2" points="249.89,198.48 212.9,198.48 212.9,194.14 248.35,194.14 		"/>
		<path id="SVGID_x5F_1_x5F_" class="st3" d="M135.49,195.93c0,0,13.76,62.14,68.66,66.43"/>
		<text>		<textPath  xlink:href="#SVGID_x5F_1_x5F_" startOffset="22.461%">
<tspan  class="st4" style="font-family:'Raleway-Light'; font-size:17.3143px;">design co.</tspan>		</textPath>
</text>
	</g>
	<g>
		<g>
			<path class="st4" d="M204.8,114.92c0.38-1.64-0.25-3.24-1.38-4.45c-1.29-1.37-3.04-2.05-4.88-2.27
				c-4.47-0.54-9.19,1.53-13.51-0.3c-0.29-0.12-0.55,0.31-0.25,0.43c3.77,1.6,7.81,0.35,11.73,0.28c2.01-0.04,4.11,0.25,5.75,1.5
				c1.44,1.09,2.49,2.84,2.05,4.69C204.25,115.1,204.73,115.23,204.8,114.92L204.8,114.92z"/>
		</g>
	</g>
	<g>
		<g>
			<path class="st4" d="M198.42,115.43c-2.2-2.39-5.55-2.77-8.62-2.53c-3.43,0.27-6.76,1.36-10.23,1.19
				c-1.99-0.09-3.94-0.65-5.45-2.01c-0.24-0.22-0.59,0.14-0.35,0.35c2.52,2.27,6.02,2.38,9.22,1.99c3.36-0.41,6.67-1.4,10.08-1
				c1.9,0.22,3.69,0.93,5,2.35C198.29,116.02,198.64,115.67,198.42,115.43L198.42,115.43z"/>
		</g>
	</g>
	<g>
		<g>
			<path class="st4" d="M182.65,116.99c-4.01-0.7-8.13-0.6-12.09,0.33c-3.81,0.89-7.49,2.9-11.48,2.75
				c-2.03-0.07-4.05-0.71-5.48-2.21c-0.22-0.23-0.58,0.12-0.35,0.35c2.42,2.53,6.2,2.7,9.43,1.98c2.05-0.46,4.01-1.23,6.01-1.84
				c2.1-0.64,4.26-1.07,6.45-1.23c2.47-0.19,4.95-0.07,7.39,0.36C182.83,117.52,182.97,117.04,182.65,116.99L182.65,116.99z"/>
		</g>
	</g>
</g>
</svg>
