<?xml version="1.0" encoding="utf-8"?>
<!-- Generator: Adobe Illustrator 27.4.0, SVG Export Plug-In . SVG Version: 6.00 Build 0)  -->
<svg version="1.1" id="Layer_1" xmlns="http://www.w3.org/2000/svg" xmlns:xlink="http://www.w3.org/1999/xlink" x="0px" y="0px"
	 viewBox="0 0 295.16 159.68" style="enable-background:new 0 0 295.16 159.68;" xml:space="preserve">
<style type="text/css">
	.st0{fill:none;stroke:#A48C31;stroke-width:0.5;stroke-miterlimit:10;}
	.st1{fill:#F09E1F;}
	.st2{fill:#A65425;}
	.st3{fill:#A48C31;}
</style>
<g>
	<g>
		<path class="st0" d="M25.35,49.69c-8.59,15.7-7.23,33.29-7.23,33.29h7.43c0,0-5.45-54.78,53.01-51.33l3.47-5.43
			c-2.85-0.31-5.57-0.49-8.18-0.56"/>
		<path class="st0" d="M58.34,48.54l4.08,9.32l16.43,0.05c0,0,1.7,15.7-11.31,20.14l-0.03-8.12l5.56,3.27"/>
		<line class="st0" x1="78.55" y1="32.09" x2="58.24" y2="48.97"/>
		
			<ellipse transform="matrix(0.2721 -0.9623 0.9623 0.2721 9.7139 106.9982)" class="st0" cx="75.58" cy="47.08" rx="3.97" ry="4.03"/>
		<circle class="st1" cx="103.19" cy="31.72" r="9.3"/>
		<line class="st0" x1="78.56" y1="31.65" x2="78.63" y2="44.51"/>
		<line class="st0" x1="69.07" y1="39.84" x2="72.26" y2="44.58"/>
		<g>
			<path class="st2" d="M103.49,82.99h9v51.42h-3.04V116c-11.26,12.78-24.24,19.17-38.95,19.17c-7.51,0-14.38-1.6-20.62-4.79
				c-6.24-3.2-11.62-7.38-16.13-12.55c-4.51-5.17-8.01-11.03-10.5-17.57c-2.49-6.54-2.96-10.03-2.96-16.72h3.04
				c0,6.8,0.47,10.18,2.96,16.42c2.48,6.24,5.91,11.74,10.27,16.51c4.36,4.77,9.43,8.57,15.21,11.41
				c5.78,2.84,12.02,4.26,18.71,4.26c7.1,0,13.85-1.62,20.24-4.87c6.39-3.24,12.63-8.42,18.71-15.52V86.03h-6.51"/>
		</g>
		<path class="st0" d="M62.42,57.86c0,0-7,27.31-24.04,20.39l4.87-8.11l2.68,7"/>
		<polygon class="st2" points="105.54,86.03 79.61,86.03 79.61,82.99 104.46,82.99 		"/>
	</g>
	<g>
		<g>
			<path class="st3" d="M74.01,27.48c0.6-2.67-2.07-4.5-4.39-4.8c-3.18-0.41-6.48,1.05-9.55-0.24c-0.3-0.12-0.43,0.36-0.13,0.48
				c2.55,1.06,5.27,0.29,7.91,0.19c1.38-0.05,2.87,0.07,4.05,0.86c1.1,0.74,1.95,2,1.64,3.37C73.45,27.66,73.94,27.79,74.01,27.48
				L74.01,27.48z"/>
		</g>
	</g>
	<g>
		<g>
			<path class="st3" d="M69.52,27.76c-1.99-2.14-5.15-2.01-7.8-1.58c-2.99,0.48-6.69,1.51-9.23-0.76c-0.24-0.21-0.59,0.14-0.35,0.35
				c2.27,2.02,5.5,1.65,8.26,1.15c2.86-0.52,6.53-1.21,8.77,1.19C69.38,28.35,69.73,28,69.52,27.76L69.52,27.76z"/>
		</g>
	</g>
	<g>
		<g>
			<path class="st3" d="M58.43,28.83c-3.62-0.62-7.22-0.28-10.7,0.86c-3.01,0.99-7.03,2.46-9.64-0.23
				c-0.22-0.23-0.58,0.12-0.35,0.35c2.35,2.43,5.97,1.73,8.82,0.79c1.89-0.62,3.76-1.23,5.75-1.46c1.99-0.23,4.01-0.17,5.98,0.17
				C58.61,29.37,58.74,28.89,58.43,28.83L58.43,28.83z"/>
		</g>
	</g>
</g>
<g>
	<path class="st1" d="M214.84,116c-0.58,0-1.12-0.12-1.61-0.36c-0.49-0.24-0.92-0.56-1.28-0.97c-0.36-0.4-0.64-0.86-0.84-1.38
		c-0.2-0.52-0.3-1.06-0.3-1.62c0-0.58,0.1-1.13,0.29-1.66s0.46-0.99,0.8-1.39s0.75-0.71,1.22-0.95s0.98-0.35,1.54-0.35
		c0.37,0,0.71,0.05,1.03,0.16s0.62,0.25,0.9,0.43c0.28,0.18,0.53,0.38,0.76,0.62s0.42,0.49,0.58,0.76v-5.2h0.8v10.63
		c0,0.27,0.11,0.4,0.34,0.4v0.72c-0.06,0.01-0.12,0.02-0.16,0.02c-0.04,0-0.09,0.01-0.13,0.01c-0.21,0-0.4-0.08-0.55-0.25
		c-0.15-0.17-0.23-0.34-0.23-0.52v-0.93c-0.34,0.56-0.8,1-1.38,1.34C216.06,115.83,215.47,116,214.84,116z M214.99,115.27
		c0.29,0,0.6-0.06,0.93-0.18s0.64-0.28,0.93-0.49c0.29-0.21,0.53-0.45,0.73-0.72s0.32-0.56,0.35-0.87v-2.75
		c-0.12-0.3-0.29-0.59-0.51-0.86c-0.22-0.27-0.47-0.51-0.75-0.71c-0.28-0.2-0.58-0.36-0.9-0.47s-0.63-0.18-0.93-0.18
		c-0.48,0-0.92,0.11-1.32,0.31s-0.74,0.48-1.01,0.82c-0.28,0.34-0.49,0.73-0.64,1.16s-0.23,0.88-0.23,1.34
		c0,0.48,0.09,0.94,0.26,1.37c0.17,0.43,0.41,0.81,0.72,1.14c0.31,0.33,0.66,0.6,1.06,0.79
		C214.08,115.17,214.52,115.27,214.99,115.27z"/>
	<path class="st1" d="M224.86,116c-0.59,0-1.14-0.12-1.64-0.35c-0.5-0.23-0.94-0.55-1.31-0.95c-0.37-0.4-0.66-0.87-0.87-1.39
		c-0.21-0.53-0.31-1.09-0.31-1.69c0-0.59,0.1-1.15,0.31-1.67c0.21-0.52,0.5-0.98,0.86-1.37s0.8-0.7,1.3-0.93
		c0.5-0.23,1.04-0.34,1.62-0.34c0.59,0,1.14,0.12,1.64,0.35c0.5,0.23,0.94,0.54,1.3,0.93c0.37,0.39,0.65,0.85,0.85,1.37
		c0.2,0.52,0.31,1.07,0.31,1.65c0,0.05,0,0.12,0,0.2c0,0.08-0.01,0.13-0.02,0.15h-7.34c0.03,0.48,0.14,0.93,0.34,1.34
		c0.19,0.41,0.44,0.77,0.73,1.07c0.3,0.3,0.64,0.54,1.02,0.71s0.8,0.26,1.24,0.26c0.29,0,0.57-0.04,0.85-0.12
		c0.28-0.08,0.54-0.19,0.78-0.33c0.24-0.14,0.46-0.31,0.64-0.51c0.19-0.2,0.34-0.42,0.44-0.65l0.71,0.19
		c-0.12,0.3-0.29,0.58-0.52,0.83c-0.23,0.25-0.5,0.47-0.8,0.65c-0.31,0.18-0.64,0.33-1.01,0.43C225.62,115.94,225.25,116,224.86,116
		z M228.15,111.32c-0.03-0.49-0.14-0.94-0.33-1.35c-0.19-0.41-0.43-0.76-0.72-1.06c-0.3-0.29-0.64-0.53-1.02-0.69
		c-0.39-0.17-0.8-0.25-1.24-0.25s-0.85,0.08-1.24,0.25c-0.39,0.17-0.73,0.4-1.02,0.69c-0.3,0.3-0.53,0.65-0.71,1.06
		c-0.18,0.41-0.28,0.86-0.31,1.34H228.15z"/>
	<path class="st1" d="M233.35,116c-0.64,0-1.26-0.11-1.85-0.32s-1.11-0.54-1.55-0.97l0.4-0.55c0.45,0.41,0.92,0.71,1.4,0.9
		s1.02,0.29,1.59,0.29c0.73,0,1.32-0.15,1.76-0.46c0.45-0.31,0.67-0.73,0.67-1.28c0-0.26-0.06-0.48-0.17-0.65
		c-0.11-0.18-0.28-0.33-0.51-0.45c-0.23-0.12-0.5-0.23-0.84-0.33c-0.33-0.1-0.72-0.2-1.16-0.31c-0.47-0.11-0.88-0.21-1.23-0.32
		s-0.64-0.24-0.86-0.39c-0.23-0.15-0.4-0.33-0.51-0.55c-0.11-0.21-0.17-0.49-0.17-0.82c0-0.42,0.08-0.78,0.24-1.09
		s0.38-0.57,0.67-0.77c0.28-0.2,0.61-0.36,0.98-0.46c0.37-0.1,0.76-0.15,1.18-0.15c0.66,0,1.24,0.11,1.74,0.33
		c0.5,0.22,0.9,0.5,1.18,0.85l-0.45,0.44c-0.28-0.32-0.64-0.56-1.09-0.73c-0.45-0.16-0.92-0.24-1.43-0.24c-0.31,0-0.6,0.03-0.88,0.1
		c-0.27,0.06-0.51,0.17-0.72,0.31s-0.37,0.32-0.48,0.54s-0.18,0.48-0.18,0.78c0,0.25,0.04,0.45,0.12,0.6
		c0.08,0.15,0.21,0.28,0.39,0.39c0.18,0.11,0.41,0.2,0.68,0.28c0.28,0.08,0.61,0.17,1,0.27c0.53,0.13,0.99,0.25,1.4,0.37
		s0.75,0.26,1.02,0.44c0.27,0.17,0.48,0.38,0.63,0.61c0.14,0.24,0.22,0.54,0.22,0.9c0,0.75-0.29,1.35-0.88,1.8
		C235.11,115.77,234.33,116,233.35,116z"/>
	<path class="st1" d="M238.44,105.56v-1.48h0.8v1.48H238.44z M238.44,115.83v-8.38h0.8v8.38H238.44z"/>
	<path class="st1" d="M245.16,115.96c-0.58,0-1.11-0.12-1.59-0.36c-0.48-0.24-0.9-0.56-1.25-0.97s-0.62-0.86-0.82-1.38
		c-0.2-0.52-0.3-1.05-0.3-1.59c0-0.57,0.09-1.12,0.28-1.64c0.19-0.53,0.45-0.99,0.8-1.39c0.34-0.4,0.75-0.72,1.23-0.96
		c0.48-0.24,1.01-0.35,1.59-0.35c0.73,0,1.37,0.19,1.91,0.57c0.54,0.38,1,0.85,1.38,1.39v-1.82h0.74V116c0,0.57-0.11,1.07-0.32,1.5
		c-0.22,0.43-0.5,0.79-0.86,1.07c-0.36,0.28-0.78,0.5-1.26,0.64c-0.48,0.14-0.98,0.22-1.51,0.22c-0.48,0-0.92-0.04-1.3-0.14
		c-0.39-0.09-0.73-0.22-1.02-0.39c-0.3-0.17-0.56-0.37-0.79-0.61c-0.23-0.24-0.43-0.51-0.6-0.8l0.55-0.37
		c0.33,0.57,0.78,0.98,1.35,1.25c0.57,0.26,1.18,0.39,1.82,0.39c0.43,0,0.83-0.06,1.22-0.18c0.38-0.12,0.71-0.29,1-0.52
		c0.28-0.23,0.51-0.52,0.68-0.86c0.17-0.34,0.25-0.75,0.25-1.21v-1.84c-0.34,0.55-0.8,0.99-1.37,1.31
		C246.38,115.8,245.78,115.96,245.16,115.96z M245.35,115.27c0.35,0,0.7-0.07,1.04-0.2c0.34-0.13,0.64-0.31,0.92-0.52
		c0.27-0.21,0.5-0.46,0.68-0.72c0.18-0.27,0.29-0.54,0.33-0.81v-2.75c-0.13-0.32-0.3-0.62-0.52-0.89c-0.21-0.27-0.46-0.51-0.73-0.7
		c-0.27-0.19-0.57-0.35-0.89-0.46c-0.32-0.11-0.64-0.17-0.96-0.17c-0.5,0-0.96,0.11-1.35,0.32s-0.73,0.49-1.01,0.84
		s-0.48,0.73-0.63,1.17c-0.15,0.43-0.22,0.87-0.22,1.31c0,0.48,0.09,0.94,0.26,1.37c0.17,0.43,0.41,0.81,0.71,1.14
		c0.3,0.33,0.65,0.6,1.06,0.79S244.89,115.27,245.35,115.27z"/>
	<path class="st1" d="M258.48,115.83h-0.81v-4.67c0-1.08-0.15-1.87-0.46-2.37c-0.31-0.49-0.79-0.74-1.46-0.74
		c-0.35,0-0.71,0.06-1.05,0.19c-0.35,0.13-0.67,0.31-0.97,0.55s-0.56,0.51-0.79,0.83c-0.23,0.32-0.39,0.66-0.5,1.02v5.19h-0.8v-8.38
		h0.76v2c0.17-0.32,0.38-0.62,0.64-0.88c0.25-0.26,0.54-0.49,0.85-0.68c0.32-0.19,0.65-0.33,1.01-0.43c0.35-0.1,0.72-0.15,1.09-0.15
		c0.91,0,1.56,0.32,1.93,0.96c0.38,0.64,0.56,1.55,0.56,2.75V115.83z"/>
	<path class="st1" d="M264.47,111.61c0-0.59,0.1-1.15,0.31-1.67s0.49-0.98,0.85-1.37s0.8-0.69,1.31-0.92
		c0.5-0.23,1.06-0.34,1.66-0.34c0.76,0,1.43,0.17,2.01,0.52c0.58,0.34,1.02,0.82,1.31,1.43l-0.79,0.26
		c-0.25-0.46-0.6-0.82-1.05-1.09c-0.46-0.26-0.96-0.39-1.51-0.39c-0.46,0-0.89,0.09-1.29,0.27s-0.74,0.43-1.04,0.76
		c-0.3,0.32-0.53,0.7-0.7,1.14s-0.26,0.9-0.26,1.41s0.09,0.98,0.27,1.43c0.18,0.45,0.41,0.83,0.71,1.16
		c0.29,0.33,0.64,0.59,1.05,0.78c0.4,0.19,0.83,0.29,1.28,0.29c0.29,0,0.58-0.04,0.86-0.13c0.28-0.09,0.55-0.2,0.79-0.34
		c0.24-0.14,0.45-0.3,0.63-0.49c0.18-0.19,0.3-0.38,0.36-0.59l0.79,0.23c-0.11,0.29-0.27,0.56-0.49,0.81
		c-0.22,0.25-0.48,0.47-0.78,0.65s-0.63,0.33-1,0.43c-0.37,0.1-0.74,0.15-1.13,0.15c-0.59,0-1.14-0.12-1.64-0.35
		c-0.5-0.23-0.94-0.55-1.31-0.95c-0.37-0.4-0.66-0.87-0.87-1.39C264.58,112.78,264.47,112.21,264.47,111.61z"/>
	<path class="st1" d="M277.26,116c-0.59,0-1.14-0.12-1.64-0.35c-0.5-0.23-0.93-0.54-1.3-0.94c-0.37-0.4-0.65-0.86-0.85-1.38
		s-0.31-1.08-0.31-1.66c0-0.59,0.1-1.15,0.31-1.68c0.21-0.53,0.5-0.99,0.86-1.38s0.8-0.71,1.3-0.94c0.5-0.23,1.04-0.35,1.62-0.35
		c0.58,0,1.12,0.12,1.61,0.35c0.49,0.23,0.93,0.54,1.3,0.94s0.66,0.86,0.87,1.38c0.21,0.53,0.31,1.08,0.31,1.68
		c0,0.58-0.1,1.13-0.31,1.66c-0.21,0.53-0.5,0.99-0.86,1.38c-0.37,0.4-0.8,0.71-1.3,0.94C278.38,115.88,277.84,116,277.26,116z
		 M273.98,111.69c0,0.49,0.08,0.96,0.26,1.39c0.17,0.43,0.41,0.81,0.7,1.13c0.29,0.32,0.64,0.58,1.04,0.77
		c0.4,0.19,0.82,0.28,1.27,0.28s0.88-0.09,1.27-0.28c0.4-0.19,0.75-0.45,1.05-0.78s0.54-0.72,0.71-1.15
		c0.17-0.44,0.26-0.91,0.26-1.41c0-0.49-0.09-0.96-0.26-1.39c-0.17-0.43-0.41-0.82-0.71-1.14c-0.3-0.33-0.65-0.59-1.04-0.78
		c-0.39-0.19-0.81-0.29-1.26-0.29c-0.45,0-0.88,0.1-1.27,0.29c-0.4,0.19-0.74,0.46-1.04,0.79c-0.3,0.33-0.53,0.72-0.71,1.17
		C274.07,110.73,273.98,111.2,273.98,111.69z"/>
	<path class="st1" d="M283.11,115.83v-1.37h0.71v1.37H283.11z"/>
</g>
<g>
	<path class="st3" d="M134.98,98.88c-1.49,1.49-3.23,2.24-5.22,2.24c-1.23,0-2.39-0.25-3.47-0.74c-1.08-0.49-2.02-1.17-2.82-2.03
		s-1.43-1.88-1.9-3.04s-0.7-2.43-0.7-3.78c0-1.28,0.23-2.49,0.7-3.62s1.11-2.13,1.92-2.98c0.82-0.85,1.78-1.53,2.89-2.03
		c1.11-0.5,2.31-0.75,3.61-0.75c1.76,0,3.26,0.37,4.52,1.11c1.26,0.74,2.2,1.73,2.83,2.98l-2.71,2c-0.47-0.93-1.14-1.64-1.99-2.14
		c-0.85-0.49-1.78-0.74-2.78-0.74c-0.79,0-1.52,0.17-2.17,0.5s-1.22,0.79-1.69,1.37c-0.47,0.58-0.83,1.25-1.08,2
		c-0.25,0.76-0.38,1.56-0.38,2.4c0,0.88,0.14,1.7,0.42,2.46c0.28,0.76,0.67,1.43,1.16,1.99c0.49,0.56,1.08,1.01,1.75,1.33
		c0.68,0.33,1.41,0.49,2.2,0.49c1.81,0,3.44-0.85,4.9-2.56v-1.32h-3.77v-2.66h6.77v9.62h-3V98.88z"/>
	<path class="st3" d="M141.09,100.99V82.28h8.28c0.86,0,1.66,0.18,2.39,0.54c0.73,0.36,1.36,0.83,1.88,1.42
		c0.53,0.59,0.94,1.26,1.24,2s0.45,1.5,0.45,2.25c0,1.21-0.3,2.32-0.91,3.31c-0.61,0.99-1.43,1.71-2.46,2.15l4.27,7.04h-4.09
		l-3.82-6.27h-3.58v6.27H141.09z M144.73,91.53h4.56c0.33,0,0.65-0.08,0.94-0.24s0.54-0.37,0.75-0.65c0.21-0.27,0.38-0.59,0.5-0.96
		s0.18-0.76,0.18-1.19c0-0.44-0.07-0.84-0.21-1.21s-0.33-0.69-0.57-0.96s-0.51-0.48-0.82-0.63c-0.31-0.15-0.62-0.22-0.94-0.22h-4.4
		V91.53z"/>
	<path class="st3" d="M163.66,82.28h3.22l7.12,18.72h-3.74l-1.74-4.67h-6.54l-1.71,4.67h-3.74L163.66,82.28z M167.85,93.77
		l-2.58-7.35l-2.69,7.35H167.85z"/>
	<path class="st3" d="M174.23,91.5c0-1.14,0.21-2.27,0.62-3.39c0.41-1.12,1.01-2.11,1.81-2.99c0.79-0.88,1.76-1.59,2.9-2.13
		s2.44-0.82,3.9-0.82c1.72,0,3.21,0.38,4.47,1.13c1.26,0.76,2.19,1.74,2.81,2.95l-2.79,1.92c-0.25-0.53-0.54-0.97-0.9-1.33
		c-0.35-0.36-0.73-0.65-1.13-0.86c-0.4-0.21-0.83-0.36-1.26-0.46c-0.44-0.1-0.87-0.15-1.29-0.15c-0.91,0-1.71,0.18-2.39,0.55
		c-0.68,0.37-1.24,0.85-1.69,1.44c-0.45,0.59-0.79,1.26-1.01,2c-0.23,0.75-0.34,1.49-0.34,2.23c0,0.83,0.13,1.62,0.4,2.38
		c0.26,0.76,0.64,1.44,1.12,2.02c0.48,0.58,1.06,1.05,1.74,1.4s1.42,0.53,2.23,0.53c0.42,0,0.86-0.05,1.32-0.16
		c0.46-0.11,0.89-0.27,1.3-0.5c0.41-0.23,0.79-0.52,1.15-0.88s0.63-0.79,0.84-1.31l2.98,1.71c-0.3,0.7-0.72,1.32-1.28,1.86
		s-1.18,0.99-1.87,1.36s-1.44,0.65-2.23,0.84c-0.79,0.19-1.56,0.29-2.32,0.29c-1.34,0-2.56-0.28-3.66-0.84
		c-1.11-0.56-2.06-1.3-2.86-2.2c-0.8-0.9-1.42-1.93-1.87-3.08C174.45,93.87,174.23,92.7,174.23,91.5z"/>
	<path class="st3" d="M193.44,100.99V82.28h3.64v18.72H193.44z"/>
	<path class="st3" d="M213.98,97.8v3.19h-13V82.28h12.76v3.19h-9.12v4.51h7.88v2.95h-7.88v4.88H213.98z"/>
	<path class="st3" d="M236.15,98.88c-1.49,1.49-3.23,2.24-5.22,2.24c-1.23,0-2.39-0.25-3.47-0.74c-1.08-0.49-2.02-1.17-2.82-2.03
		s-1.43-1.88-1.9-3.04s-0.7-2.43-0.7-3.78c0-1.28,0.23-2.49,0.7-3.62s1.11-2.13,1.92-2.98c0.82-0.85,1.78-1.53,2.89-2.03
		c1.11-0.5,2.31-0.75,3.61-0.75c1.76,0,3.26,0.37,4.52,1.11c1.26,0.74,2.2,1.73,2.83,2.98l-2.71,2c-0.47-0.93-1.14-1.64-1.99-2.14
		c-0.85-0.49-1.78-0.74-2.78-0.74c-0.79,0-1.52,0.17-2.17,0.5s-1.22,0.79-1.69,1.37c-0.47,0.58-0.83,1.25-1.08,2
		c-0.25,0.76-0.38,1.56-0.38,2.4c0,0.88,0.14,1.7,0.42,2.46c0.28,0.76,0.67,1.43,1.16,1.99c0.49,0.56,1.08,1.01,1.75,1.33
		c0.68,0.33,1.41,0.49,2.2,0.49c1.81,0,3.44-0.85,4.9-2.56v-1.32h-3.77v-2.66h6.77v9.62h-3V98.88z"/>
	<path class="st3" d="M242.26,100.99V82.28h3.64v18.72H242.26z"/>
	<path class="st3" d="M249.8,100.99V82.28h8.28c0.86,0,1.66,0.18,2.39,0.54c0.73,0.36,1.36,0.83,1.88,1.42
		c0.53,0.59,0.94,1.26,1.24,2s0.45,1.5,0.45,2.25c0,1.21-0.3,2.32-0.91,3.31c-0.61,0.99-1.43,1.71-2.46,2.15l4.27,7.04h-4.09
		l-3.82-6.27h-3.58v6.27H249.8z M253.44,91.53H258c0.33,0,0.65-0.08,0.94-0.24s0.54-0.37,0.75-0.65c0.21-0.27,0.38-0.59,0.5-0.96
		s0.18-0.76,0.18-1.19c0-0.44-0.07-0.84-0.21-1.21s-0.33-0.69-0.57-0.96s-0.51-0.48-0.82-0.63c-0.31-0.15-0.62-0.22-0.94-0.22h-4.4
		V91.53z"/>
	<path class="st3" d="M267.33,100.99V82.28h3.64V97.8h9.54v3.19H267.33z"/>
</g>
</svg>
