<?xml version="1.0" encoding="utf-8"?>
<!-- Generator: Adobe Illustrator 27.4.0, SVG Export Plug-In . SVG Version: 6.00 Build 0)  -->
<svg version="1.1" id="Layer_1" xmlns="http://www.w3.org/2000/svg" xmlns:xlink="http://www.w3.org/1999/xlink" x="0px" y="0px"
	 viewBox="0 0 295.16 159.68" style="enable-background:new 0 0 295.16 159.68;" xml:space="preserve">
<style type="text/css">
	.st0{fill:#F09E1F;}
	.st1{fill:#A48C31;}
</style>
<g>
	<path class="st0" d="M161.7,110.28c-0.85,0-1.63-0.18-2.36-0.53c-0.72-0.35-1.35-0.83-1.87-1.41c-0.53-0.59-0.93-1.26-1.22-2.02
		c-0.29-0.76-0.44-1.55-0.44-2.37c0-0.85,0.14-1.66,0.42-2.43c0.28-0.77,0.67-1.44,1.18-2.03c0.5-0.58,1.1-1.04,1.78-1.39
		c0.68-0.35,1.43-0.52,2.25-0.52c0.53,0,1.04,0.08,1.51,0.24s0.91,0.37,1.32,0.62c0.41,0.26,0.78,0.56,1.11,0.91
		c0.33,0.35,0.61,0.72,0.85,1.11v-7.61h1.18v15.54c0,0.39,0.17,0.59,0.5,0.59v1.06c-0.09,0.02-0.17,0.03-0.24,0.04
		c-0.06,0.01-0.13,0.01-0.19,0.01c-0.31,0-0.58-0.12-0.8-0.37c-0.22-0.24-0.33-0.5-0.33-0.77v-1.37c-0.5,0.82-1.17,1.47-2.01,1.96
		C163.49,110.04,162.61,110.28,161.7,110.28z M161.91,109.22c0.42,0,0.88-0.09,1.37-0.26s0.94-0.41,1.35-0.72
		c0.42-0.31,0.77-0.66,1.07-1.05c0.3-0.39,0.47-0.82,0.52-1.27v-4.03c-0.17-0.44-0.42-0.86-0.74-1.26c-0.32-0.4-0.69-0.75-1.09-1.04
		c-0.41-0.29-0.85-0.52-1.32-0.69c-0.47-0.17-0.93-0.26-1.37-0.26c-0.71,0-1.35,0.15-1.93,0.46s-1.07,0.71-1.48,1.2
		c-0.41,0.5-0.72,1.06-0.94,1.7s-0.33,1.29-0.33,1.97c0,0.71,0.13,1.37,0.38,2c0.25,0.63,0.6,1.19,1.05,1.67
		c0.45,0.49,0.96,0.87,1.55,1.15C160.58,109.08,161.22,109.22,161.91,109.22z"/>
	<path class="st0" d="M176.34,110.28c-0.86,0-1.66-0.17-2.4-0.51c-0.74-0.34-1.38-0.8-1.92-1.39c-0.54-0.59-0.96-1.27-1.27-2.04
		c-0.31-0.77-0.46-1.59-0.46-2.47c0-0.86,0.15-1.67,0.46-2.44c0.31-0.76,0.73-1.43,1.26-2s1.16-1.02,1.9-1.35
		c0.73-0.33,1.52-0.49,2.37-0.49c0.86,0,1.66,0.17,2.4,0.51c0.74,0.34,1.37,0.79,1.91,1.36c0.53,0.57,0.95,1.24,1.25,2
		c0.3,0.76,0.45,1.57,0.45,2.41c0,0.08,0,0.18,0,0.29c0,0.12-0.01,0.19-0.02,0.22h-10.74c0.05,0.71,0.21,1.36,0.49,1.97
		c0.28,0.61,0.64,1.13,1.07,1.57c0.43,0.44,0.93,0.79,1.5,1.04s1.17,0.38,1.81,0.38c0.42,0,0.84-0.06,1.25-0.18
		c0.41-0.12,0.79-0.28,1.14-0.48c0.35-0.2,0.67-0.45,0.94-0.74c0.27-0.29,0.49-0.61,0.65-0.95l1.04,0.28
		c-0.17,0.44-0.43,0.84-0.77,1.21c-0.34,0.37-0.73,0.69-1.18,0.95c-0.45,0.27-0.94,0.48-1.47,0.62
		C177.46,110.21,176.91,110.28,176.34,110.28z M181.15,103.45c-0.05-0.72-0.21-1.38-0.48-1.98c-0.28-0.6-0.63-1.11-1.06-1.54
		c-0.43-0.43-0.93-0.77-1.5-1.01c-0.57-0.24-1.17-0.37-1.81-0.37s-1.25,0.12-1.81,0.37c-0.57,0.24-1.06,0.58-1.49,1.01
		c-0.43,0.43-0.78,0.95-1.04,1.55c-0.26,0.6-0.41,1.26-0.46,1.97H181.15z"/>
	<path class="st0" d="M188.75,110.28c-0.94,0-1.84-0.16-2.71-0.47s-1.62-0.79-2.26-1.41l0.59-0.8c0.66,0.6,1.34,1.04,2.05,1.32
		s1.48,0.42,2.33,0.42c1.07,0,1.93-0.22,2.58-0.67c0.65-0.45,0.98-1.07,0.98-1.87c0-0.38-0.08-0.7-0.25-0.95
		c-0.17-0.26-0.41-0.48-0.74-0.66c-0.33-0.18-0.74-0.34-1.22-0.48c-0.49-0.14-1.05-0.29-1.7-0.45c-0.69-0.16-1.29-0.31-1.8-0.47
		s-0.93-0.34-1.26-0.57c-0.33-0.22-0.58-0.49-0.74-0.8c-0.17-0.31-0.25-0.72-0.25-1.2c0-0.61,0.12-1.14,0.35-1.6
		c0.24-0.46,0.56-0.83,0.98-1.13c0.42-0.3,0.89-0.52,1.44-0.67c0.54-0.15,1.12-0.22,1.73-0.22c0.96,0,1.81,0.16,2.54,0.48
		c0.74,0.32,1.31,0.73,1.72,1.24l-0.66,0.64c-0.41-0.47-0.94-0.83-1.59-1.06c-0.65-0.24-1.35-0.35-2.08-0.35
		c-0.46,0-0.88,0.05-1.28,0.14c-0.4,0.09-0.75,0.24-1.05,0.45c-0.3,0.2-0.53,0.47-0.71,0.79c-0.17,0.32-0.26,0.7-0.26,1.14
		c0,0.36,0.06,0.65,0.18,0.87c0.12,0.22,0.31,0.41,0.57,0.57c0.26,0.16,0.59,0.29,1,0.41c0.41,0.12,0.89,0.25,1.46,0.39
		c0.77,0.19,1.45,0.37,2.05,0.54c0.6,0.17,1.09,0.39,1.49,0.64c0.4,0.25,0.71,0.55,0.92,0.89c0.21,0.35,0.32,0.79,0.32,1.32
		c0,1.1-0.43,1.97-1.28,2.62C191.32,109.96,190.18,110.28,188.75,110.28z"/>
	<path class="st0" d="M196.19,95.03v-2.17h1.18v2.17H196.19z M196.19,110.05V97.8h1.18v12.24H196.19z"/>
	<path class="st0" d="M206.01,110.24c-0.85,0-1.63-0.18-2.33-0.53c-0.71-0.35-1.32-0.83-1.83-1.41s-0.91-1.26-1.2-2.01
		c-0.29-0.75-0.44-1.53-0.44-2.33c0-0.83,0.14-1.63,0.41-2.4c0.28-0.77,0.66-1.45,1.17-2.04c0.5-0.59,1.1-1.05,1.8-1.4
		c0.7-0.35,1.47-0.52,2.32-0.52c1.07,0,2,0.28,2.79,0.84c0.79,0.56,1.46,1.24,2.01,2.04V97.8h1.08v12.48c0,0.83-0.16,1.56-0.47,2.19
		c-0.32,0.63-0.74,1.15-1.26,1.57c-0.53,0.42-1.14,0.73-1.84,0.94c-0.7,0.21-1.43,0.32-2.2,0.32c-0.71,0-1.34-0.07-1.91-0.2
		c-0.57-0.13-1.06-0.32-1.49-0.57c-0.43-0.24-0.82-0.54-1.15-0.89c-0.34-0.35-0.63-0.74-0.88-1.17l0.8-0.54
		c0.49,0.83,1.14,1.44,1.98,1.82c0.83,0.38,1.72,0.58,2.66,0.58c0.63,0,1.22-0.09,1.78-0.26c0.56-0.17,1.04-0.43,1.46-0.77
		c0.42-0.34,0.75-0.76,0.99-1.26c0.24-0.5,0.37-1.09,0.37-1.77v-2.68c-0.5,0.8-1.17,1.44-2,1.92
		C207.79,110,206.92,110.24,206.01,110.24z M206.29,109.22c0.52,0,1.02-0.1,1.52-0.3c0.49-0.2,0.94-0.45,1.34-0.77
		c0.4-0.31,0.73-0.67,0.99-1.06c0.26-0.39,0.42-0.79,0.48-1.18v-4.03c-0.19-0.47-0.44-0.91-0.75-1.31c-0.31-0.4-0.67-0.74-1.07-1.02
		c-0.4-0.28-0.83-0.51-1.29-0.67c-0.46-0.16-0.93-0.25-1.4-0.25c-0.74,0-1.4,0.16-1.98,0.47c-0.58,0.31-1.07,0.72-1.47,1.22
		c-0.4,0.5-0.71,1.07-0.92,1.71c-0.21,0.64-0.32,1.27-0.32,1.92c0,0.71,0.13,1.37,0.38,2c0.25,0.63,0.6,1.19,1.04,1.67
		c0.44,0.49,0.96,0.87,1.55,1.15C204.98,109.08,205.62,109.22,206.29,109.22z"/>
	<path class="st0" d="M225.48,110.05h-1.18v-6.83c0-1.58-0.22-2.74-0.67-3.46c-0.45-0.72-1.16-1.08-2.13-1.08
		c-0.52,0-1.03,0.09-1.54,0.28c-0.51,0.19-0.98,0.46-1.42,0.8c-0.44,0.35-0.82,0.75-1.15,1.21c-0.33,0.46-0.57,0.96-0.73,1.5v7.58
		h-1.18V97.8h1.11v2.92c0.25-0.47,0.56-0.9,0.93-1.28c0.37-0.38,0.79-0.71,1.25-0.99c0.46-0.27,0.95-0.49,1.47-0.64
		c0.52-0.15,1.05-0.22,1.6-0.22c1.33,0,2.28,0.47,2.83,1.4c0.55,0.93,0.82,2.27,0.82,4.02V110.05z"/>
	<path class="st0" d="M234.24,103.88c0-0.86,0.15-1.68,0.45-2.45c0.3-0.77,0.71-1.44,1.25-2c0.53-0.57,1.17-1.01,1.91-1.34
		c0.74-0.33,1.55-0.49,2.43-0.49c1.11,0,2.1,0.25,2.94,0.75c0.85,0.5,1.48,1.2,1.91,2.1l-1.15,0.38c-0.36-0.68-0.88-1.2-1.54-1.59
		c-0.67-0.38-1.4-0.58-2.2-0.58c-0.68,0-1.3,0.13-1.88,0.4c-0.58,0.27-1.09,0.64-1.52,1.11c-0.43,0.47-0.77,1.02-1.02,1.66
		c-0.25,0.64-0.38,1.32-0.38,2.06c0,0.74,0.13,1.43,0.39,2.08c0.26,0.65,0.6,1.22,1.04,1.7c0.43,0.48,0.94,0.86,1.53,1.14
		c0.59,0.28,1.21,0.42,1.87,0.42c0.42,0,0.84-0.06,1.26-0.19c0.42-0.13,0.8-0.29,1.15-0.5c0.35-0.2,0.66-0.44,0.92-0.72
		c0.26-0.27,0.44-0.56,0.53-0.86l1.15,0.33c-0.16,0.42-0.4,0.82-0.72,1.19c-0.32,0.37-0.7,0.69-1.14,0.95
		c-0.44,0.27-0.93,0.48-1.46,0.62c-0.53,0.15-1.08,0.22-1.65,0.22c-0.86,0-1.66-0.17-2.4-0.51c-0.74-0.34-1.38-0.8-1.92-1.39
		c-0.54-0.59-0.96-1.27-1.27-2.04C234.39,105.58,234.24,104.76,234.24,103.88z"/>
	<path class="st0" d="M252.94,110.28c-0.86,0-1.66-0.17-2.39-0.51c-0.73-0.34-1.36-0.8-1.9-1.38c-0.53-0.58-0.95-1.25-1.25-2.02
		c-0.3-0.77-0.45-1.58-0.45-2.43c0-0.86,0.15-1.68,0.46-2.45c0.31-0.77,0.73-1.44,1.26-2.02c0.53-0.58,1.16-1.04,1.9-1.38
		c0.73-0.34,1.52-0.51,2.37-0.51c0.85,0,1.63,0.17,2.35,0.51c0.72,0.34,1.35,0.8,1.9,1.38c0.54,0.58,0.96,1.26,1.27,2.02
		c0.31,0.77,0.46,1.59,0.46,2.45c0,0.85-0.15,1.66-0.46,2.43c-0.31,0.77-0.73,1.44-1.26,2.02c-0.53,0.58-1.16,1.04-1.9,1.38
		C254.57,110.11,253.78,110.28,252.94,110.28z M248.13,104c0,0.72,0.12,1.4,0.38,2.04c0.25,0.64,0.59,1.19,1.02,1.66
		c0.43,0.47,0.94,0.85,1.52,1.12c0.58,0.28,1.2,0.41,1.86,0.41s1.28-0.14,1.86-0.41c0.58-0.27,1.09-0.66,1.53-1.14
		c0.44-0.49,0.79-1.05,1.04-1.68c0.25-0.64,0.38-1.32,0.38-2.06c0-0.72-0.13-1.4-0.38-2.04c-0.25-0.64-0.6-1.19-1.04-1.67
		c-0.44-0.48-0.94-0.86-1.52-1.14c-0.57-0.28-1.19-0.42-1.85-0.42c-0.66,0-1.28,0.14-1.86,0.42c-0.58,0.28-1.09,0.67-1.52,1.15
		c-0.43,0.49-0.78,1.06-1.04,1.71C248.26,102.59,248.13,103.27,248.13,104z"/>
	<path class="st0" d="M261.48,110.05v-2h1.04v2H261.48z"/>
</g>
<g>
	<path class="st1" d="M44.96,85.27c-2.18,2.18-4.73,3.27-7.63,3.27c-1.8,0-3.49-0.36-5.07-1.08c-1.58-0.72-2.95-1.71-4.12-2.97
		c-1.17-1.26-2.09-2.74-2.77-4.45c-0.68-1.71-1.02-3.55-1.02-5.53c0-1.87,0.34-3.64,1.02-5.3c0.68-1.66,1.62-3.11,2.81-4.35
		c1.19-1.25,2.6-2.23,4.22-2.97c1.62-0.73,3.38-1.1,5.28-1.1c2.57,0,4.77,0.54,6.61,1.62c1.84,1.08,3.22,2.53,4.14,4.35l-3.97,2.93
		c-0.69-1.36-1.66-2.4-2.91-3.12c-1.25-0.72-2.6-1.08-4.07-1.08c-1.16,0-2.22,0.24-3.18,0.73c-0.96,0.49-1.79,1.16-2.47,2
		c-0.68,0.85-1.21,1.82-1.58,2.93c-0.37,1.1-0.56,2.27-0.56,3.51c0,1.28,0.2,2.49,0.62,3.6c0.41,1.12,0.97,2.09,1.69,2.91
		c0.72,0.82,1.57,1.47,2.56,1.95c0.99,0.48,2.06,0.71,3.22,0.71c2.64,0,5.03-1.25,7.17-3.74v-1.93h-5.51v-3.89h9.9v14.06h-4.39
		V85.27z"/>
	<path class="st1" d="M53.9,88.35V61H66c1.26,0,2.42,0.26,3.49,0.79c1.06,0.53,1.98,1.22,2.75,2.08c0.77,0.86,1.37,1.84,1.81,2.93
		c0.44,1.09,0.66,2.19,0.66,3.29c0,1.77-0.44,3.39-1.33,4.84c-0.89,1.45-2.09,2.5-3.6,3.14l6.24,10.29h-5.97l-5.59-9.17h-5.24v9.17
		H53.9z M59.22,74.52h6.67c0.49,0,0.94-0.12,1.37-0.35c0.42-0.23,0.79-0.55,1.1-0.94c0.31-0.4,0.55-0.87,0.73-1.41
		c0.18-0.54,0.27-1.12,0.27-1.73c0-0.64-0.1-1.23-0.31-1.77s-0.48-1.01-0.83-1.41c-0.35-0.4-0.75-0.71-1.19-0.92
		c-0.45-0.22-0.9-0.33-1.37-0.33h-6.43V74.52z"/>
	<path class="st1" d="M86.88,61h4.7l10.4,27.36h-5.47l-2.54-6.82h-9.56l-2.5,6.82h-5.47L86.88,61z M93.01,77.79l-3.78-10.75
		L85.3,77.79H93.01z"/>
	<path class="st1" d="M102.33,74.48c0-1.67,0.3-3.32,0.9-4.95c0.6-1.63,1.48-3.09,2.64-4.37c1.16-1.28,2.57-2.32,4.24-3.12
		c1.67-0.8,3.57-1.19,5.7-1.19c2.52,0,4.69,0.55,6.53,1.66c1.84,1.1,3.2,2.54,4.1,4.32l-4.08,2.81c-0.36-0.77-0.8-1.42-1.31-1.95
		c-0.51-0.53-1.07-0.94-1.66-1.25c-0.59-0.31-1.21-0.53-1.85-0.67c-0.64-0.14-1.27-0.21-1.89-0.21c-1.34,0-2.5,0.27-3.49,0.81
		c-0.99,0.54-1.81,1.24-2.47,2.1c-0.66,0.86-1.15,1.84-1.48,2.93c-0.34,1.09-0.5,2.18-0.5,3.26c0,1.21,0.19,2.37,0.58,3.49
		c0.38,1.12,0.93,2.1,1.64,2.95c0.71,0.85,1.55,1.53,2.54,2.04s2.07,0.77,3.26,0.77c0.62,0,1.26-0.08,1.93-0.23
		c0.67-0.15,1.3-0.4,1.91-0.73c0.6-0.33,1.16-0.76,1.68-1.29c0.51-0.53,0.92-1.16,1.23-1.91l4.35,2.51
		c-0.44,1.03-1.06,1.93-1.87,2.72c-0.81,0.78-1.72,1.44-2.74,1.98c-1.01,0.54-2.1,0.95-3.26,1.23c-1.15,0.28-2.29,0.42-3.39,0.42
		c-1.95,0-3.74-0.41-5.36-1.23c-1.62-0.82-3.01-1.89-4.18-3.22c-1.17-1.32-2.08-2.83-2.74-4.51
		C102.66,77.94,102.33,76.23,102.33,74.48z"/>
	<path class="st1" d="M130.42,88.35V61h5.32v27.36H130.42z"/>
	<path class="st1" d="M160.43,83.69v4.66h-19V61h18.65v4.66h-13.33v6.59h11.52v4.32h-11.52v7.13H160.43z"/>
	<path class="st1" d="M192.84,85.27c-2.18,2.18-4.73,3.27-7.63,3.27c-1.8,0-3.49-0.36-5.07-1.08c-1.58-0.72-2.95-1.71-4.12-2.97
		s-2.09-2.74-2.77-4.45c-0.68-1.71-1.02-3.55-1.02-5.53c0-1.87,0.34-3.64,1.02-5.3c0.68-1.66,1.62-3.11,2.81-4.35
		c1.19-1.25,2.6-2.23,4.22-2.97c1.62-0.73,3.38-1.1,5.28-1.1c2.57,0,4.77,0.54,6.61,1.62c1.84,1.08,3.22,2.53,4.14,4.35l-3.97,2.93
		c-0.69-1.36-1.66-2.4-2.91-3.12c-1.25-0.72-2.6-1.08-4.07-1.08c-1.16,0-2.22,0.24-3.18,0.73c-0.96,0.49-1.79,1.16-2.47,2
		c-0.68,0.85-1.21,1.82-1.58,2.93c-0.37,1.1-0.56,2.27-0.56,3.51c0,1.28,0.2,2.49,0.62,3.6c0.41,1.12,0.97,2.09,1.69,2.91
		c0.72,0.82,1.57,1.47,2.56,1.95c0.99,0.48,2.06,0.71,3.22,0.71c2.64,0,5.03-1.25,7.17-3.74v-1.93h-5.51v-3.89h9.9v14.06h-4.39
		V85.27z"/>
	<path class="st1" d="M201.77,88.35V61h5.32v27.36H201.77z"/>
	<path class="st1" d="M212.79,88.35V61h12.1c1.26,0,2.42,0.26,3.49,0.79c1.06,0.53,1.98,1.22,2.75,2.08
		c0.77,0.86,1.37,1.84,1.81,2.93c0.44,1.09,0.66,2.19,0.66,3.29c0,1.77-0.44,3.39-1.33,4.84c-0.89,1.45-2.09,2.5-3.6,3.14
		l6.24,10.29h-5.97l-5.59-9.17h-5.24v9.17H212.79z M218.11,74.52h6.67c0.49,0,0.94-0.12,1.37-0.35c0.42-0.23,0.79-0.55,1.1-0.94
		c0.31-0.4,0.55-0.87,0.73-1.41c0.18-0.54,0.27-1.12,0.27-1.73c0-0.64-0.1-1.23-0.31-1.77s-0.48-1.01-0.83-1.41
		c-0.35-0.4-0.75-0.71-1.19-0.92c-0.45-0.22-0.9-0.33-1.37-0.33h-6.43V74.52z"/>
	<path class="st1" d="M238.42,88.35V61h5.32v22.69h13.95v4.66H238.42z"/>
</g>
</svg>
